# xmcd
#
# Track frame offsets:
#	150
#	12709
#	25037
#	38198
#	49390
#	63774
#	76304
#	85699
#	98959
#	111545
#	124301
#	134649
#	145642
#	159812
#	174111
#	186635
#	200805
#	209702
#	221051
#	233620
#	245159
#	258203
#	269645
#	285428
#	298087
#
# Disc length: 4125 seconds
#
# Revision: 0
# Processed by: cddbd v1.5.2PL0 Copyright (c) Steve Scherf et al.
# Submitted via: dBpowerAMP V4.0
#
DISCID=83101b19
DTITLE=Various Artist - Baladas Romaticas Vol 3
DYEAR=2003
DGENRE=Ballad
TTITLE0=Ray Charles - Yesterday
TTITLE1=Los Diamantes - Jurame
TTITLE2=Mario Marini - Maruzella
TTITLE3=Kile Minogye - Tears on my pillow
TTITLE4=Charles Aznavour - Tu etais trop jolie
TTITLE5=B.J.Thomas - I can't help it
TTITLE6=Gladys night - Every beat of my heart
TTITLE7=Charlie Rich - The most beautiful girl
TTITLE8=Admano - C'est ma vie
TTITLE9=Tom Jones - Let it be
TTITLE10=Gene Chandler - Duke of heart
TTITLE11=Paul Anka - Crazy love
TTITLE12=Celine Dion - En partez sans moi
TTITLE13=Iva Zanicchi - Per vivere
TTITLE14=Frank Sinatra - Saturday night
TTITLE15=Tina Charles - I love to love
TTITLE16=Roy Orbison - It's too late
TTITLE17=Gene Chandler - Just be true
TTITLE18=Harold Melvin - If you don't knoe me by now
TTITLE19=Jason Donovan - Sealed with a kiss
TTITLE20=Mina - Una casa incima al mondo
TTITLE21=Hall and Oates - A lot of love comin'
TTITLE22=Aretha Franklin - Say a little prayer
TTITLE23=Adamo - Sans toi ma vie
TTITLE24=Littel Anthony - Going out of my head
EXTD=
EXTT0=
EXTT1=
EXTT2=
EXTT3=
EXTT4=
EXTT5=
EXTT6=
EXTT7=
EXTT8=
EXTT9=
EXTT10=
EXTT11=
EXTT12=
EXTT13=
EXTT14=
EXTT15=
EXTT16=
EXTT17=
EXTT18=
EXTT19=
EXTT20=
EXTT21=
EXTT22=
EXTT23=
EXTT24=
PLAYORDER=
